<svg width="77" height="147" viewBox="0 0 77 147" fill="none" xmlns="http://www.w3.org/2000/svg">
<path d="M61.9439 84.6203H0.0429688V146.521H61.9439V84.6203Z" fill="#B2FF65"/>
<path d="M76.7268 67.4537L61.9441 84.6203V146.522L76.8141 123.78V67.4537H76.7268Z" fill="#53BF00"/>
<path d="M14.8257 67.4537L0.0429688 84.6203H61.9439L76.7266 67.4537H14.8257Z" fill="#64E600"/>
<path d="M61.901 48.9843H0V79.069H61.901V48.9843Z" fill="#65FFAC"/>
<path d="M76.683 31.817L61.901 48.9843V79.069L76.7704 56.3264V0L76.683 31.817Z" fill="#00BF91"/>
<path d="M14.782 32.489L0 49.6563H61.901L76.683 32.489H14.782Z" fill="#00E6AF"/>
<path d="M61.901 26.6672H0V43.6362H61.901V26.6672Z" fill="#45DCA5"/>
<path d="M76.683 9.68674L61.901 26.8534V43.6362L76.7704 20.8937V9.68674H76.683Z" fill="#0D8459"/>
<path d="M14.782 10.1719L0 27.3386H61.901L76.683 10.1719H14.782Z" fill="#1BC386"/>
</svg>
