<svg width="137" height="139" viewBox="0 0 137 139" fill="none" xmlns="http://www.w3.org/2000/svg">
<path d="M82.943 31.6591H62.7922L85.7142 54.5801V120.068C85.7142 125.507 81.3055 129.916 75.8687 129.916H10.3522C9.41789 129.916 8.5171 129.778 7.66064 129.534C8.2596 134.4 12.3995 138.169 17.4264 138.169H82.943C88.3798 138.169 92.7885 133.76 92.7885 128.322V41.5045C92.7885 36.0668 88.3798 31.6591 82.943 31.6591Z" fill="#B2FF65"/>
<path fill-rule="evenodd" clip-rule="evenodd" d="M10.3522 23.4058H54.539L85.7143 54.5801V120.069C85.7143 125.508 81.3056 129.916 75.8688 129.916H10.3522C5.75998 129.916 1.91183 126.768 0.822412 122.515L0.663808 122.516V55.5054C0.610878 55.4657 0.557739 55.4262 0.504395 55.3871V33.2517C0.504395 27.814 4.91448 23.4058 10.3522 23.4058Z" fill="#0D8459"/>
<path d="M54.5391 23.4058V44.7342C54.5391 50.1719 58.9477 54.5801 64.3845 54.5801H85.7144L54.5391 23.4058Z" fill="#57E587"/>
<path d="M38.3932 40.1727H13.8715C12.5694 40.1727 11.5134 41.2286 11.5134 42.5308C11.5134 43.8329 12.5694 44.8889 13.8715 44.8889H38.3932C39.6954 44.8889 40.7513 43.8329 40.7513 42.5308C40.7513 41.2286 39.6954 40.1727 38.3932 40.1727Z" fill="white"/>
<path d="M47.8256 54.8876H13.8715C12.5694 54.8876 11.5134 55.9436 11.5134 57.2457C11.5134 58.5478 12.5694 59.6038 13.8715 59.6038H47.8256C49.1277 59.6038 50.1837 58.5478 50.1837 57.2457C50.1837 55.9436 49.1277 54.8876 47.8256 54.8876Z" fill="white"/>
<path d="M69.0483 69.6016H13.8715C12.5694 69.6016 11.5134 70.6575 11.5134 71.9596C11.5134 73.2618 12.5694 74.3177 13.8715 74.3177H69.0483C70.3505 74.3177 71.4064 73.2618 71.4064 71.9596C71.4064 70.6575 70.3505 69.6016 69.0483 69.6016Z" fill="white"/>
<path d="M69.0483 84.3156H13.8715C12.5694 84.3156 11.5134 85.3715 11.5134 86.6736C11.5134 87.9758 12.5694 89.0317 13.8715 89.0317H69.0483C70.3505 89.0317 71.4064 87.9758 71.4064 86.6736C71.4064 85.3715 70.3505 84.3156 69.0483 84.3156Z" fill="white"/>
<path d="M69.0483 99.0305H13.8715C12.5694 99.0305 11.5134 100.086 11.5134 101.389C11.5134 102.691 12.5694 103.747 13.8715 103.747H69.0483C70.3505 103.747 71.4064 102.691 71.4064 101.389C71.4064 100.086 70.3505 99.0305 69.0483 99.0305Z" fill="white"/>
<path d="M69.0483 113.745H13.8715C12.5694 113.745 11.5134 114.8 11.5134 116.103C11.5134 117.405 12.5694 118.461 13.8715 118.461H69.0483C70.3505 118.461 71.4064 117.405 71.4064 116.103C71.4064 114.8 70.3505 113.745 69.0483 113.745Z" fill="white"/>
<path opacity="0.6" d="M119.577 19.9657L103 27.505L119.577 37.2989L136.148 27.505L119.577 19.9657Z" fill="#94FF42"/>
<path opacity="0.45" d="M103 27.505L119.577 37.2989V0L103 27.505Z" fill="#94FF42"/>
<path opacity="0.8" d="M119.577 0V37.2989L136.148 27.505L119.577 0Z" fill="#94FF42"/>
<path opacity="0.45" d="M103 30.6458L119.577 54V40.4397L103 30.6458Z" fill="#94FF42"/>
<path opacity="0.8" d="M119.577 40.4397V54L136.161 30.6458L119.577 40.4397Z" fill="#94FF42"/>
</svg>
