<svg width="33" height="33" fill="none" xmlns="http://www.w3.org/2000/svg"><g clip-path="url(#a)"><path d="M27.503 20.755c-1.707 4.412-5.99 7.54-11.005 7.54-6.514 0-11.795-5.28-11.795-11.795S9.984 4.704 16.5 4.704V0a16.405 16.405 0 0 0-6.424 1.298A16.445 16.445 0 0 0 4.83 4.832a16.446 16.446 0 0 0-3.534 5.245A16.405 16.405 0 0 0-.002 16.5a16.407 16.407 0 0 0 1.298 6.424A16.444 16.444 0 0 0 4.83 28.17a16.427 16.427 0 0 0 5.245 3.534 16.395 16.395 0 0 0 6.424 1.298 16.397 16.397 0 0 0 6.424-1.298 16.428 16.428 0 0 0 5.245-3.534 16.434 16.434 0 0 0 4.274-7.414h-4.94Z" fill="#B2FF65"/><path d="M28.296 16.5a11.764 11.764 0 0 1-.791 4.255h4.939c.37-1.388.556-2.819.555-4.255a16.397 16.397 0 0 0-1.298-6.424 16.44 16.44 0 0 0-3.534-5.245 16.445 16.445 0 0 0-5.245-3.534A16.407 16.407 0 0 0 16.498 0v4.705c6.517 0 11.798 5.281 11.798 11.796Z" fill="#89D95A"/></g><defs><clipPath id="a"><path fill="#fff" d="M0 0h33v33H0z"/></clipPath></defs></svg>
